<?xml version="1.0" encoding="UTF-8"?><svg xmlns="http://www.w3.org/2000/svg" viewBox="0 0 590.03 324.27"><defs><style>.cls-1{fill:none;isolation:isolate;}.cls-2{fill:#e6e6e6;}.cls-3{fill:#fcee21;mix-blend-mode:multiply;}</style></defs><g class="cls-1"><g id="Layer_2"><g id="Layer_1-2"><path class="cls-3" d="m162.3,0c9.68,0,17.38,7.7,17.38,17.38s-7.7,17.38-17.38,17.38-17.38-7.7-17.38-17.38S152.62,0,162.3,0Z"/><polygon class="cls-2" points="106.64 107.36 29.64 1.32 5.88 1.32 5.88 155.32 32.28 155.32 32.28 49.5 109.28 155.32 133.04 155.32 133.04 1.32 106.64 1.32 106.64 107.36"/><rect class="cls-2" x="149.1" y="51.04" width="26.4" height="104.28"/><path class="cls-2" d="m378.64,48.4c-24.42,0-33.22,18.26-33.22,18.26,0,0-7.26-18.26-32.34-18.26-16.55,0-25.95,10.71-29.34,15.52v-12.88h-26.4v69.52s-7.04,12.76-20.68,12.76-20.68-6.6-20.68-22v-60.28h-26.4v67.54c0,25.08,18.26,39.38,38.28,39.38,16.63,0,26.32-10.83,29.78-15.6v12.96h26.4v-68.86s6.6-13.42,20.46-13.42,18.7,7.7,18.7,22v60.28h26.4v-68.86s6.6-13.42,20.46-13.42,18.7,7.7,18.7,22v60.28h26.4v-67.1c0-25.08-15.4-39.82-36.52-39.82Z"/><path class="cls-2" d="m55,257.39c-22.66-7.92-48.18-20.24-48.18-48.84,0-21.78,19.36-43.56,50.38-43.56s50.16,24.42,50.16,24.42l-18.26,18.04s-12.76-17.38-31.9-17.38c-13.2,0-23.54,8.14-23.54,18.48,0,13.42,12.1,17.6,33.22,25.52,23.54,8.8,43.12,19.36,43.12,47.3s-24.64,42.9-53.68,42.9c-38.5,0-56.32-31.46-56.32-31.46l19.8-16.72s13.2,23.1,36.52,23.1c13.2,0,26.84-5.28,26.84-17.82s-9.9-17.6-28.16-23.98Z"/><path class="cls-2" d="m115.5,217.35h20.46v-31.02h26.4v31.02h31.46v23.76h-31.46v42.02c0,12.76,6.6,16.5,13.64,16.5,5.94,0,11-3.74,11-3.74l9.68,21.56s-9.9,6.82-25.08,6.82c-20.24,0-35.64-14.74-35.64-36.96v-46.2h-20.46v-23.76Z"/><path class="cls-2" d="m205.25,284.89v-67.54h26.4v60.28c0,15.4,7.26,22,20.68,22s20.68-12.76,20.68-12.76v-69.52h26.4v104.28h-24.64v-15.18s-9.9,17.82-31.24,17.82c-20.02,0-38.28-14.3-38.28-39.38Z"/><path class="cls-2" d="m415.35,321.63h-24.42v-13.64s-9.02,16.28-31.46,16.28c-27.06,0-50.82-22.66-50.82-54.78s23.76-54.78,50.82-54.78c19.8,0,29.48,13.64,29.48,13.64v-73.04h26.4v166.32Zm-26.4-67.76s-7.48-14.52-24.86-14.52-28.6,12.98-28.6,30.14,10.78,30.14,28.6,30.14,24.86-14.52,24.86-14.52v-31.24Z"/><path class="cls-3" d="m452.09,166.3c9.68,0,17.38,7.7,17.38,17.38s-7.7,17.38-17.38,17.38-17.38-7.7-17.38-17.38,7.7-17.38,17.38-17.38Z"/><rect class="cls-2" x="438.89" y="217.35" width="26.4" height="104.28"/><path class="cls-2" d="m590.03,269.48c0,30.58-24.64,54.78-55.66,54.78s-55.66-24.2-55.66-54.78,24.64-54.78,55.66-54.78,55.66,23.98,55.66,54.78Zm-26.84,0c0-16.28-11-30.14-28.82-30.14s-28.82,13.86-28.82,30.14,11,30.14,28.82,30.14,28.82-13.86,28.82-30.14Z"/></g></g></g></svg>